PERFORMER "Ajattara"
TITLE "Noitumaa"
REM DATE 2009
REM GENRE "Acoustic"
FILE "01 - Keuhkosi.flac" WAVE
  TRACK 01 AUDIO
    PERFORMER "Ajattara"
    TITLE "Keuhkosi"
    INDEX 01 00:00:00
FILE "02 - Massat.flac" WAVE
  TRACK 02 AUDIO
    PERFORMER "Ajattara"
    TITLE "Massat"
    INDEX 01 00:00:00
FILE "03 - Mita Kuolema Parantaa.flac" WAVE
  TRACK 03 AUDIO
    PERFORMER "Ajattara"
    TITLE "Mitä Kuolema Parantaa?"
    INDEX 01 00:00:00
FILE "04 - Saatana Palvoo Meita.flac" WAVE
  TRACK 04 AUDIO
    PERFORMER "Ajattara"
    TITLE "Saatana Palvoo Meitä"
    INDEX 01 00:00:00
FILE "05 - Saveen Saarnattu.flac" WAVE
  TRACK 05 AUDIO
    PERFORMER "Ajattara"
    TITLE "Saveen Saarnattu"
    INDEX 01 00:00:00
FILE "06 - Ikuisen Aamun Sara.flac" WAVE
  TRACK 06 AUDIO
    PERFORMER "Ajattara"
    TITLE "Ikuisen Aamun Sara"
    INDEX 01 00:00:00
FILE "07 - Kielletyn Sanat.flac" WAVE
  TRACK 07 AUDIO
    PERFORMER "Ajattara"
    TITLE "Kielletyn Sanat"
    INDEX 01 00:00:00
FILE "08 - Sakeita Riippuneesta Lihasta.flac" WAVE
  TRACK 08 AUDIO
    PERFORMER "Ajattara"
    TITLE "Säkeitä Riippuneesta Lihasta"
    INDEX 01 00:00:00
FILE "09 - Lammas.flac" WAVE
  TRACK 09 AUDIO
    PERFORMER "Ajattara"
    TITLE "Lammas"
    INDEX 01 00:00:00
